{
  "id": "20260511-143156-bbd442",
  "title": "人生主题",
  "task_type": "material",
  "status": "mastered",
  "error": "",
  "publish_status": "unpublished",
  "publish_error": "",
  "output": "/Users/mac/.openclaw/workspace/jimeng_runs/20260511-143156-bbd442/final_mastered.mp4",
  "created_at": 1778481116.444104,
  "updated_at": 1778481124.619892,
  "post": {
    "mode": "narrated",
    "title_card_text": "关于人生主题的一段观察",
    "enable_natural_voiceover": true,
    "material_category": "auto",
    "narration_tone": "根据主题自动选择表达方式，保持自然、克制、适合短视频",
    "voice_profile": "steady_male",
    "narration_style": "documentary",
    "subtitle_style": "douyin_bold",
    "selection_engine": "manual",
    "narration_text": "这条视频想讲清楚的是：人生主题。先，看整体，再，看关键细节。你会发现，它真正重要的不是表面的形式。而是背后那条清晰的逻辑。",
    "resolved_mode": "narrated",
    "voice_style_config": {
      "voice_profile": "steady_male",
      "voice": "echo",
      "speed": 0.96,
      "gain": 1.01,
      "pause_bias": 0.18,
      "bgm_volume": 0.25,
      "style": "documentary",
      "category": "auto"
    },
    "tts_voice": "echo",
    "tts_speed": 0.96,
    "voice_gain": 1.01,
    "pause_bias": 0.18,
    "bgm_volume": 0.25,
    "tts_engine": "system_say",
    "tts_detail": "Error code: 403 - {'error': {'code': 'unsupported_country_region_territory', 'message': 'Country, region, or territory not supported', 'param': None, 'type': 'request_forbidden'}}\nffmpeg version 8.1 Copyright (c) 2000-2026 the FFmpeg developers\n  built with Apple clang version 21.0.0 (clang-2100.0.123.102)\n  configuration: --prefix=/opt/homebrew/Cellar/ffmpeg/8.1 --enable-shared --enable-pthreads --enable-version3 --cc=clang --host-cflags= --host-ldflags= --enable-ffplay --enable-gpl --enable-libsvtav1 --enable-libopus --enable-libx264 --enable-libmp3lame --enable-libdav1d --enable-libvmaf --enable-libvpx --enable-libx265 --enable-openssl --enable-videotoolbox --enable-audiotoolbox --enable-neon\n  libavutil      60. 26.100 / 60. 26.100\n  libavcodec     62. 28.100 / 62. 28.100\n  libavformat    62. 12.100 / 62. 12.100\n  libavdevice    62.  3.100 / 62.  3.100\n  libavfilter    11. 14.100 / 11. 14.100\n  libswscale      9.  5.100 /  9.  5.100\n  libswresample   6.  3.100 /  6.  3.100\n[aist#0:0/pcm_s16be @ 0x740c14180] Guessed Channel Layout: mono\nInput #0, aiff, from '/Users/mac/.openclaw/workspace/jimeng_runs/20260511-143156-bbd442/narration.aiff':\n  Duration: 00:00:14.95, start: 0.000000, bitrate: 354 kb/s\n  Stream #0:0: Audio: pcm_s16be (twos / 0x736F7774), 22050 Hz, mono, s16, 352 kb/s\nStream mapping:\n  Stream #0:0 -> #0:0 (pcm_s16be (native) -> mp3 (libmp3lame))\nPress [q] to stop, [?] for help\nOutput #0, mp3, to '/Users/mac/.openclaw/workspace/jimeng_runs/20260511-143156-bbd442/narration.mp3':\n  Metadata:\n    TSSE            : Lavf62.12.100\n  Stream #0:0: Audio: mp3, 44100 Hz, stereo, s16p, 192 kb/s\n    Metadata:\n      encoder         : Lavc62.28.100 libmp3lame\n[out#0/mp3 @ 0x740c24240] video:0KiB audio:351KiB subtitle:0KiB other streams:0KiB global headers:0KiB muxing overhead: 0.186460%\nsize=     352KiB time=00:00:14.95 bitrate= 192.9kbits/s speed= 234x elapsed=0:00:00.06",
    "mix_params": {
      "voice_gain": 1.01,
      "bgm_volume": 0.25,
      "ducking": "sidechaincompress_or_fallback",
      "target_duration": 15.232,
      "voice_source": "tts"
    },
    "voiceover_normalized": "/Users/mac/.openclaw/workspace/jimeng_runs/20260511-143156-bbd442/narration_normalized.mp3"
  },
  "publish": {
    "title": "关于人生主题的一段观察",
    "description": "人文街拍 精选片段合集 #人文街拍 #ClawLink #AI短片",
    "cover": "auto",
    "auto_publish": false
  },
  "input": {
    "library": "人文街拍",
    "stitch_mode": "concat",
    "topic": "人生主题",
    "clips": [
      {
        "file": "01-早市烟火.mp4",
        "relpath": "01-早市烟火.mp4",
        "duration_sec": 5.06,
        "reason": "顺序贪心兜底",
        "order": 1
      },
      {
        "file": "02-雨后巷口.mp4",
        "relpath": "02-雨后巷口.mp4",
        "duration_sec": 5.06,
        "reason": "顺序贪心兜底",
        "order": 2
      },
      {
        "file": "03-地铁人流.mp4",
        "relpath": "03-地铁人流.mp4",
        "duration_sec": 5.06,
        "reason": "顺序贪心兜底",
        "order": 3
      }
    ],
    "target_duration_sec": 15.0,
    "material_category": "auto",
    "narration_tone": "根据主题自动选择表达方式，保持自然、克制、适合短视频",
    "voice_profile": "steady_male",
    "narration_style": "documentary"
  },
  "selection": {
    "engine": "manual",
    "suggested_tags": [
      "人文街拍",
      "ClawLink",
      "素材库短片"
    ],
    "selected_bgm_asset": null,
    "selected_voice_asset": null
  },
  "subtitle_mode": "burned",
  "subtitle_backend": "overlay:douyin_bold"
}